<svg xmlns="http://www.w3.org/2000/svg" viewBox="0 0 165.6 242.61">
  <defs>
    <style>
      .cls-1 {
        fill: #fff;
      }

      .cls-1, .cls-2 {
        fill-rule: evenodd;
      }

      .cls-2 {
        fill: #1e293b;
      }
    </style>
  </defs>
  <title>Asset 1</title>
  <g id="Layer_2" data-name="Layer 2">
    <g id="Layer_1-2" data-name="Layer 1">
      <g id="Introduction">
        <g id="variations">
          <g id="images">
            <g id="a-person_bust" data-name="a-person/bust">
              <g id="body_Coffee" data-name="body/Coffee">
                <path id="_-Background" data-name="ðŸŽ¨-Background" class="cls-1" d="M78.21,95.14c5.22-4,18.31-5.76,23.88-1.93s6.09,10.05,8.66,15.77c2.41-1.14,6.4.49,7.11,2.73.86,1.06.9,4,1.5,5.46,26.08,4.15,30,24.49,33.18,47.58,4.15,23.43,13.58,46.82,9.49,70.93a14.06,14.06,0,0,1,1.34,2.41,2.51,2.51,0,0,1-2.15,3.74c-2.43-.21-4.84-.5-7.28-.59-6.77-.24-13.55-.21-20.33-.12h-.92c-34.15.42-68.3,1.26-102.45,1.48a1.77,1.77,0,0,1-1.68-2.2c.34-2.21.65-4.42,1-6.63-8.08,2.14-16.66,2.67-24.72.23-.56-.58,1.31-.27,1.61-.35-7.41-5.07-5.2-15.74-4.54-23.43,4.08-26.35,5.52-55.5,21.3-78C30,123.08,40,115.81,51.5,114.18l.32,0c3.36-.45,7.11-.6,10-2.43,3.31-2.64,4.71-7.51,8.19-7.56,1.15,0,2.71,1.44,4.39,2.43.13-2.18,1.3-4,1.56-5.69l0-.14C76.3,98.78,75.93,97,78.21,95.14Zm56.05,70.31c-7.33-5.09-26.26-2.54-26.7-2.25-1,.63-1.36.68-1.88,1.5l-1.52.21c-1,.33-.27,1.59.91,1.14-.71,3.06,1.38,5.23,2.21,8.26a16.79,16.79,0,0,1,0,3.75c.08,1.28,1.49,2.79,1.26,4.07-.84,4.57-5.39,9-3.47,13.44,1.27,2.5,5.09,3.78,7.63,4.63,5.26,2,14.42-.08,17.48-4.63,1.63-2.42,3.52-8.54,4.49-10.44l.22-3C135.42,174.64,135.89,166.58,134.26,165.45Z"/>
                <path id="_-Ink" data-name="ðŸ–-Ink" class="cls-2" d="M68.79,103.71a.6.6,0,0,1,.93.72,24,24,0,0,1-2.43,3.85c-.59.73-1.22,1.42-1.86,2.1a36.88,36.88,0,0,1,4.37,4.83,79.57,79.57,0,0,0,5.2,6.24,16.7,16.7,0,0,0,6.47,4.12l.5.18c2.53.88,5.22,2.08,6.64,4.47a.56.56,0,0,1-.75.76c-2.47-1.53-5.38-1.84-8.07-2.85a20.16,20.16,0,0,1-6.86-4.4,67,67,0,0,1-5.42-6.23,47.37,47.37,0,0,0-5.64-5.69c-3.16,2.12-6.76,3-10.43,4l-.4.1a59.72,59.72,0,0,0-10.76,3.54,32.57,32.57,0,0,0-8.49,5.33,39.78,39.78,0,0,0-6.54,8.5c-4.18,6.73-7.12,14.11-9.71,21.57a224,224,0,0,0-6.76,23.71c-.92,4.07-1.67,8.18-2.29,12.31q-.45,3-.79,6a34.24,34.24,0,0,1-1,6.39,1.58,1.58,0,0,1-1.61,1.21L3,206.11c-.17,2.25-.34,4.49-.4,6.76-.09,3.76,0,7.51.22,11.26l0,.52c.21,2.73.69,5.81,2.75,7.82s5.41,2.73,8.28,2.77c6.7.08,13.14-3.08,19.07-5.86q9.15-4.29,17.82-9.47,4.42-2.62,8.75-5.43c1.41-.91,2.82-1.84,4.21-2.79.8-.54,1.56-1.13,2.37-1.61a1.12,1.12,0,0,1-.24-1.47c-2.35-2-3.33-5.67-3.44-8.62a44.4,44.4,0,0,1,.53-7.1c.14-1.19.31-2.37.49-3.55.07-.47.12-1,.21-1.46a196.75,196.75,0,0,1-19.55,9.35c-3.43,1.41-6.91,2.68-10.43,3.84l-.71.24a78.92,78.92,0,0,1-10.21,2.75c-.18,0-.33-.24-.13-.33,3.36-1.48,6.84-2.73,10.25-4.1l.56-.23h0a.69.69,0,0,1-.2,0c-2-.48-4-1.22-5.95-1.85a35.59,35.59,0,0,1-5.57-1.83c-.13-.06-.06-.25.07-.26a25.47,25.47,0,0,1,5.87.76l.7.12c1.18.21,2.39.43,3.56.73a1.58,1.58,0,0,1,.58-1c3.44-2.55,3.09-7.7,3.46-11.5l.27-2.82c.48-4.93,1-9.87,1.76-14.77,0-.26.45-.18.45.06,0,6.08-.42,12.12-.65,18.18l0,1c-.13,3.74-.23,7.63-2.59,10.5a.82.82,0,0,1,1.05.13,2,2,0,0,1,.51,1.26q3.2-1.34,6.35-2.75c6.78-3,13.42-6.36,19.89-10a1.24,1.24,0,0,1,1.7.43h.13a2.63,2.63,0,0,1,2.92.59l.07.06a10.36,10.36,0,0,0,2.75-1.8,28.09,28.09,0,0,0,4.43-5.4c2.33-3.55,4.31-7.5,7.46-10.42a21.5,21.5,0,0,1,9-4.77.32.32,0,0,1,.09-.27c.17-.18.29-.24.52-.13,0,0,0,0,0,0l.33-.56a6.63,6.63,0,0,1,.42-.68c.38-.48.76-1,1.16-1.41a10.49,10.49,0,0,1,2.31-2.1c1.94-1.19,4-.51,6,.14l3.59,1.19.13,0c.89.29,1.94.54,2.34,1.49a1.94,1.94,0,0,1,.1,1.14c8.49-2.16,17.92-1.17,26.21,1.37a1,1,0,0,1,.7.7,53.41,53.41,0,0,1,.94,14.82,37.4,37.4,0,0,1-3.1,12.38l-.1.22c-1.68,3.62-4.34,8.1-8.39,9.23-2.46.69-5.17.28-7.67.16a68.52,68.52,0,0,1-7.31-.52,8.07,8.07,0,0,1-5.35-3.05,14.83,14.83,0,0,1-2.24-5.13c-.22.07-.45.15-.67.24A7.3,7.3,0,0,0,99,194.92c-1.51,1.46-2.68,3.23-4.25,4.62a18.1,18.1,0,0,1-4.8,3c-3.61,1.56-7.49,2.18-11.31,3l-.26.06a28.42,28.42,0,0,0-8.36,2.9,1.74,1.74,0,0,1-.57,1.13,1.31,1.31,0,0,1,.24,1.71c-1.09,1.75-3,2.74-4.69,3.86l-.11.07q-2.51,1.66-5.06,3.26c-3.46,2.17-7,4.21-10.57,6.17-5.75,3.15-11.63,6.12-17.62,8.81.36,1.77.23,3.59.5,5.37l0,.25a1.73,1.73,0,0,1-.5,1.65l0,0h0l-.05,0h0l-.16.13-.07,0h0a1.47,1.47,0,0,1-1.45,0l-.05,0L29.8,241a1.65,1.65,0,0,1-.75-1.86c.6-1.65.83-3.41,1.39-5.07l-.44.2h0l-.59.25c-6.31,2.73-13.32,5-20.2,3.17a11.54,11.54,0,0,1-7.4-5.4c-1.5-2.79-1.71-6-1.79-9.13a73.83,73.83,0,0,1,.62-11.52A69.86,69.86,0,0,1,2,204a1.86,1.86,0,0,1-.63-1.21,29,29,0,0,1,.54-7.31c.32-2.34.66-4.68,1.05-7,.79-4.7,1.71-9.4,2.77-14.05a186,186,0,0,1,7.42-24.33l.27-.69A93.49,93.49,0,0,1,24,128.64a32.68,32.68,0,0,1,7.46-8A35.11,35.11,0,0,1,40.78,116,53.83,53.83,0,0,1,51,113.6c3.53-.48,7.25-.78,10.53-2.22a1.77,1.77,0,0,1,.64-2.22A63,63,0,0,0,68.79,103.71Zm75.38,67.68a.16.16,0,0,1,.29.12c-1.15,4.69-2.22,9.4-2.93,14.18-1.26,8.63-1,17.38-.93,26.08v.45c0,4.68.13,9.37.28,14.05.08,2.37.23,4.76.15,7.13,0,1.28-.39,2.5-.51,3.76a23.42,23.42,0,0,0,0,3.35c0,.74-1,.71-1.13,0l-.09-.91a15.91,15.91,0,0,0-.66-3.42,19.07,19.07,0,0,1-.83-4c-.24-2.15-.35-4.31-.44-6.47l-.07-1.5a240.4,240.4,0,0,1,.26-27.11l0-.64C138.28,187.9,139.37,178.69,144.17,171.39Zm-24.42-53.72a.25.25,0,0,1,.14-.49l.6.14a63.85,63.85,0,0,1,12.87,4.17A28.66,28.66,0,0,1,143.75,130c5.39,7,7.63,15.57,9.4,24.1,2,9.48,3.76,19,5.74,28.47l.37,1.77c1.83,8.83,3.56,17.66,4.84,26.59l.09.65c1.29,9.19,2.06,18.69.66,27.9-.28,1.82-3.31,1.37-3.19-.43a142.47,142.47,0,0,0,.35-15.6q-.36-7.82-1.46-15.58c-.61-4.35-1.53-8.65-2.33-13l-.13-.68q-1-5.51-2.08-11l-1-5.49c-1.56-8.22-3.15-16.46-4.95-24.63l-.11-.48c-1.76-7.86-4.35-16.1-9.63-22.34S127.25,120.76,119.75,117.67Zm-19.47,83.4a.43.43,0,0,1,.72,0,9.13,9.13,0,0,1,.71,3.42v.11c.13,1.38.24,2.77.31,4.15q.21,3.94.19,7.89c0,2.7-.06,5.39-.2,8.09l0,.72c-.14,2.34-.36,5-1.47,7a1,1,0,0,1-1.74-.23c-.76-2.46-.37-5.39-.17-7.91l.15-2q.23-3,.41-5.91c.16-2.69.28-5.39.41-8.09,0-.88.08-1.75.13-2.63l.07-1.32A9.57,9.57,0,0,1,100.28,201.07Zm-86.23,3.49.34-.32c1-1,2.36-2.6,3.9-2.5a.93.93,0,0,1,.88,1.16c-.27,1.29-1.59,2-2.54,2.75s-2,1.79-3,2.72-1.71,1.68-2.52,2.55l-.3.33c-.3.32-2.37,2.2-2.15,2.69v0a.13.13,0,0,1-.14.19c-.9-.28-.84-1.05-.51-1.83a20.5,20.5,0,0,1,2.8-4.16,35.51,35.51,0,0,1,3.22-3.6ZM103.53,167c-.69-1.65-3.25-1.61-4.7-1.51A27.91,27.91,0,0,0,88,168.37c-3.37,1.77-5.64,4.61-7.67,7.75l-.1.15c-2,3.08-3.89,6.72-7,8.84a15.93,15.93,0,0,1-5.34,2.49,1,1,0,0,1-.62.48l-.13,0a7.46,7.46,0,0,1-2.13.18c0,.35,0,.71,0,1.05,0,1,0,1.95,0,2.92,0,2-.11,4.09,0,6.13a12.27,12.27,0,0,0,1.2,5.3,7.86,7.86,0,0,0,2.49,2.72,28.25,28.25,0,0,1,8.16-3.14c3.45-.84,7-1.4,10.37-2.55a17.83,17.83,0,0,0,4.6-2.24,21.31,21.31,0,0,0,3.84-3.81l.18-.21a12.47,12.47,0,0,1,4.22-3.46c1.47-.65,3.4-.76,4.69-1.76a2.61,2.61,0,0,0,.79-2.06A9.65,9.65,0,0,1,103,187l-.42,0a16.36,16.36,0,0,1-2.29-.39.15.15,0,0,1,0-.28,20.68,20.68,0,0,1,2.71-.44l.22,0a7.44,7.44,0,0,1,2.53-.09,7.06,7.06,0,0,1,.66-1.63,7.92,7.92,0,0,0,1.32-2.48,1.39,1.39,0,0,0-.16-.8l0-.08a.62.62,0,0,0-.2-.25.14.14,0,0,1-.08,0,1.25,1.25,0,0,1-1.47-.59c-1.24.16-2.59.11-3.76.16l-1.17.05a14.59,14.59,0,0,1-3.75-.17.21.21,0,0,1,0-.38,19.76,19.76,0,0,1,4.76-1c.87-.14,1.75-.24,2.62-.36.58-.07,1.19-.2,1.79-.23a3.7,3.7,0,0,0-1.4-5.64,4.39,4.39,0,0,1-2.28.07c-.83-.07-1.67-.12-2.5-.12-1.68,0-3.45.45-5.11.26-.27,0-.52-.39-.25-.61a9.43,9.43,0,0,1,4.7-1.59l.33-.05c.54-.07,1.2-.17,1.88-.23a1.06,1.06,0,0,1,.84-.59l.38,0h0C103.86,169.36,103.81,167.65,103.53,167ZM34.22,199a.35.35,0,0,1,0,.08l0,0,.17-.07-.08-.05Zm87-35.67a94.29,94.29,0,0,0-12.8-.24,3.13,3.13,0,0,1-2.69,2.11,5.07,5.07,0,0,1,.37,4.69,6.05,6.05,0,0,1,3.09,8.63,4.13,4.13,0,0,1,1.26,3.1A7.61,7.61,0,0,1,109,185a8.61,8.61,0,0,0-.91,3.41,4.86,4.86,0,0,1-3.18,3.71l.09.34a9.39,9.39,0,0,0,2.13,4.52c1.53,1.53,3.91,1.52,5.94,1.62h.09c1.86.09,3.72.2,5.57.31l1.39.07c2.14.12,4.19.14,5.93-1.28,2.85-2.3,4.8-6.12,6-9.5,2.59-7.09,2.62-14.87,1.43-22.26A61.57,61.57,0,0,0,121.2,163.33ZM85.76,175.1h0a2.07,2.07,0,0,1,1.7,1.65c.31,1.23.16,2.33.91,3.44a6.68,6.68,0,0,1,1.36,3.45,11.12,11.12,0,0,0,.15,1.73l.09.39a3.68,3.68,0,0,1,.13,1.29.94.94,0,0,1-.66.87c-1.35.43-2.39-.57-2.74-1.83-.31-1.09.1-2.39-.33-3.41-.23-.57-.67-1-.92-1.61a5.42,5.42,0,0,1-.4-1.77c-.07-1.17,1-2.57.38-3.62C85.34,175.46,85.48,175.09,85.76,175.1Zm-18-12c.92-.19,2-.61,2.86-.26A.69.69,0,0,1,71,164a4.48,4.48,0,0,1-2.58.88h-.09c-1.08.2-2.17.39-3.25.57q-3.08.51-6.16.9c-2.12.26-4.24.49-6.36.67l-.83.07a23.38,23.38,0,0,1-5.42,0c-.25,0-.21-.41,0-.48a36.22,36.22,0,0,1,6-1c2.12-.27,4.24-.54,6.35-.87s4.21-.69,6.31-1.08C65.9,163.47,66.85,163.28,67.79,163.09Zm33.06-1.87a5.38,5.38,0,0,0-2.56-.57c-1.5.24-2.84,1.71-4,2.67l.6-.11c3-.59,7.1-1.22,9.66.72l0,0a5.65,5.65,0,0,1,.71-.83l.07-.08.14-.15-.32-.11c-.69-.24-1.51-.56-1.64-.61h0ZM75.75,97.16c-.13-1.62,2.39-1.6,2.51,0a17.77,17.77,0,0,1-2.21,10l0,.07c1.06.55,2.14,1.08,3.23,1.55,1.41.61,2.83,1.16,4.29,1.63s2.94.59,4,1.47c2.33,1.86,1.46,5.71,1,8.21l-.07.4a6.53,6.53,0,0,0,.16,3.84,10.44,10.44,0,0,0,2.79,3.24l.21.19a14,14,0,0,1,2.66,3,21.36,21.36,0,0,1,2.36-3.51c.64-.84.18-1.12-.27-1.94a3.82,3.82,0,0,1-.52-2.53,6,6,0,0,1,2.91-3.78c1.56-1.07,3.31-1.86,4.93-2.85a67.24,67.24,0,0,0,9.47-7,.1.1,0,0,1,.16.12,37,37,0,0,1-8.33,9.1c-1.34,1-2.76,1.91-4.18,2.82l-.41.26a3.9,3.9,0,0,0-1.54,1.5c-.26.63.29,1.11.59,1.64,1,1.66.49,3.22-.63,4.64l-.05.06a10.45,10.45,0,0,0-2.37,4.42c-.87,3.78.34,7.71,1.61,11.26l0,.14c.68,1.91,1.41,3.81,2,5.75l.16.54c.54,1.79,1,3.55.38,5.39a.78.78,0,0,1-1.41.18c-1.25-2.07-1.56-4.57-2.34-6.85s-1.64-4.41-2.38-6.64a21.34,21.34,0,0,1-1.24-9l0-.05L93,134a11.46,11.46,0,0,0-2.49-3.82,24,24,0,0,1-3.59-3.68c-2.13-3.13-.81-6.61-.56-10l0-.42a3,3,0,0,0-.39-2.17c-.52-.55-1.74-.69-2.43-.94a39,39,0,0,1-5.23-2.25,33.93,33.93,0,0,1-4.59-2.87l-.73-.55a12.74,12.74,0,0,1-3.12-3c-.09-.14.06-.36.22-.29a26.85,26.85,0,0,1,3.68,2.08.84.84,0,0,1,.06-.14A15.46,15.46,0,0,0,75.75,97.16Zm41.19,18.52c.52-1.41,2.86-1.3,2.76.37a10.79,10.79,0,0,1-1.11,3.62l-.06.12a23,23,0,0,1-1.82,3.48,44,44,0,0,1-4.66,6,7.2,7.2,0,0,1-5.9,2.56,6.85,6.85,0,0,1-2.84-.82c-1-.58-2.14-2.34-3.44-1.91-.13,0-.25-.15-.14-.23,1.51-1.22,3.22.66,4.66,1.12a5.31,5.31,0,0,0,5.81-1.83,59.15,59.15,0,0,0,4-5.9,30.71,30.71,0,0,0,1.69-3.15C116.42,118,116.53,116.8,116.94,115.68Zm-3.5-8.68a.23.23,0,0,1,.34-.26,31.17,31.17,0,0,1,2.77,2.24c1,.83,2,1.64,3.07,2.44,1.51,1.17-.24,3.32-1.57,2C116.23,111.72,114.23,109.44,113.44,107ZM108,100.18a1.26,1.26,0,0,1,2.44.62v0a6.57,6.57,0,0,0,2.28,6.76l.07.06c1.26,1-.53,2.78-1.78,1.78A9.06,9.06,0,0,1,108,100.18Z"/>
              </g>
              <g id="head_Twists-2" data-name="head/Twists-2">
                <path id="_-Background-2" data-name="ðŸŽ¨-Background" class="cls-1" d="M128.68,50.74c-.79-6.26-3.25-12.91-5.84-18.75C117,19.65,103.68,18,91.72,15.41c-11.8-1.72-24.29-3.27-35.91.16-6.53,1.6-9.08,9.38-8.05,15.53.58,3.82,2.33,7.45,3.81,11a61.61,61.61,0,0,1,4.83,23c-.2,5.16-.93,11,5,13.22C67,81.08,67.5,88.68,74.55,93c2.86,5.78,10.63,6.29,16.22,7.63a106.94,106.94,0,0,0,10.69,1.5c10.38,1.33,18.68-1.68,24.12-10.93,3.63-5.63,6.34-12.13,5.67-19C130.59,65.06,129.48,57.91,128.68,50.74Z"/>
                <path id="_-Ink-2" data-name="ðŸ–-Ink" class="cls-2" d="M91.81.41A1.41,1.41,0,0,1,93.87.5a4.25,4.25,0,0,1,1,.48A13.2,13.2,0,0,1,97.17.91a5,5,0,0,1,.57-.27,4.13,4.13,0,0,1,3.87.46,2.62,2.62,0,0,1,2-.75,2.54,2.54,0,0,1,1.74.86A2.77,2.77,0,0,1,107.48,0,5.27,5.27,0,0,1,111,1.23,3.1,3.1,0,0,1,113.34.15a4,4,0,0,1,1.79.11,4.92,4.92,0,0,1,2.12,1.32A4.41,4.41,0,0,1,120.57.17,4.52,4.52,0,0,1,124.26,3a8.37,8.37,0,0,1,3,2l.14.15a4.66,4.66,0,0,1,1.3.74,3.67,3.67,0,0,1,1.1,4l.15.7a3.8,3.8,0,0,1,2.79,1.93,5,5,0,0,1-.22,4.87A6.61,6.61,0,0,1,131.15,19a4,4,0,0,1-.67,4.18,5.13,5.13,0,0,1-.86,1.05A3.34,3.34,0,0,1,128,27.89l-.11.28-.06.14a.84.84,0,0,1,0,.17,2.87,2.87,0,0,1-.53,1.49,13.25,13.25,0,0,0-2,2.72l0,.12a1.17,1.17,0,0,1-1.35.75c3,6,4.49,12.79,5.55,19.39.53,3.29.94,6.59,1.27,9.91l.33,3.3c.28,2.94.54,5.89.54,8.83a29.69,29.69,0,0,1-6,18.38,27.62,27.62,0,0,1-15.53,10.08c-6.39,1.47-13.87.89-19.6-2.49-1.69-1-.21-3.38,1.51-2.58a28.63,28.63,0,0,0,10.16,2.89,26.11,26.11,0,0,0,10.37-1.34,25.41,25.41,0,0,0,13.21-10.86,25,25,0,0,0,3.14-7.91,39.24,39.24,0,0,0,.34-10.66l0-.24c-.52-6.83-1.2-13.7-2.3-20.46a110.25,110.25,0,0,0-4.42-17.55,10.2,10.2,0,0,0-2.53-1.65,181.27,181.27,0,0,0-20,.26,169.68,169.68,0,0,0-17,2l-.61.11a17.48,17.48,0,0,0-3.79.85,3,3,0,0,0-1.67,2.28,40,40,0,0,0-.84,8c-.11,2.59.13,5.19-.08,7.76a9,9,0,0,1-2.32,5.92,16.1,16.1,0,0,1-2.82,1.88A1.44,1.44,0,0,0,70,61.28c.17,1.62,1.48,3.66,0,5a.7.7,0,0,1-1,0,14.17,14.17,0,0,0-2.15-1.69.29.29,0,0,1,.29-.5c.45.21.9.44,1.37.65a8.56,8.56,0,0,0-3.72-1.51,6.69,6.69,0,0,0-1.9-.11c-.47.23-1,.44-1.44.64s-1.24.5-1.86.72A8,8,0,0,0,56.87,72a6.11,6.11,0,0,0,2.31,4.15c1.6,1.07,3.74.61,5.47,1.41A7.34,7.34,0,0,1,68,81.36l.31.65a25.48,25.48,0,0,0,2.32,4.14,20.83,20.83,0,0,0,3.85,4,20,20,0,0,0,2.22,1.54l.21.12a2.23,2.23,0,0,1,1.4,1.87,1,1,0,0,1-.47.82c-1.19.75-2.36-.19-3.35-.84a24.61,24.61,0,0,1-3-2.37,23.2,23.2,0,0,1-4.52-5.72C66,84,65.52,81.74,64.08,80.49c-.87-.77-2.11-.77-3.2-.91A7.86,7.86,0,0,1,58,78.73c-3.68-2-4.72-7-3.85-10.81A11.19,11.19,0,0,1,54.77,66c-1.37.23-2.91-1.19-2.36-2.61l.14-.32a4.7,4.7,0,0,1-1.95-2.67,4.33,4.33,0,0,1-.11-1.82,2.84,2.84,0,0,1-1-1.19,3.71,3.71,0,0,1-1.76-1.56,2.8,2.8,0,0,1-.05-2.72c-.06-.11-.12-.21-.17-.32a4.91,4.91,0,0,1-2.41-4.38,4.6,4.6,0,0,1,.41-1.62,1.33,1.33,0,0,0,0-.19,4.92,4.92,0,0,1-2.65-3.06,4.39,4.39,0,0,1,.94-3.87,3.72,3.72,0,0,1-1.57-4.18,5.11,5.11,0,0,1,1.08-2.14.09.09,0,0,1,0,0l-.12-.1c-1.57-1.23-2.47-2.81-1.51-4.74a4.26,4.26,0,0,1,1.77-1.88l0-.11h0a5.15,5.15,0,0,1-.34-3.64,4.24,4.24,0,0,1,1.87-2.48,5.36,5.36,0,0,1,0-1.54,3.86,3.86,0,0,1,1.3-2.32c0-.13.06-.25.09-.37A6.78,6.78,0,0,1,47.51,14a1.79,1.79,0,0,1,1.42-.69A5.36,5.36,0,0,1,49,12a4.74,4.74,0,0,1,2.57-3.41,3.19,3.19,0,0,1,1.71-.27,3.36,3.36,0,0,1,2.57-1.91,4.43,4.43,0,0,1,1.26,0,6,6,0,0,1,.68-.27l.47-.16a5,5,0,0,1,2.06-1.51,3.89,3.89,0,0,1,2.77,0l.27-.06h0a3.29,3.29,0,0,1,2.16-1.57,3.88,3.88,0,0,1,3.34.86h0a2.69,2.69,0,0,1,2.72-1.8,3.37,3.37,0,0,1,2.27,1.08l1-.12a8.79,8.79,0,0,1,1.2-1.16,1.41,1.41,0,0,1,2.19.28c.12.18.23.36.34.54l.48,0h0a3.1,3.1,0,0,1,2.44-1.34A2.61,2.61,0,0,1,83.76,2.2c.43,0,.87,0,1.31,0A7.62,7.62,0,0,1,86.86.63a1.44,1.44,0,0,1,1.72.22,10.19,10.19,0,0,1,.8.94A4.4,4.4,0,0,1,91.81.41ZM60.72,67.53c1-.56,2.31,0,3.27.52a7.83,7.83,0,0,1,3,2.56c1,1.5-1.31,2.7-2.33,1.36a18.8,18.8,0,0,0-1.89-2.38c-.7-.66-1.71-1.11-2.1-2A.05.05,0,0,1,60.72,67.53Zm.69-36.32,0-.06c.28-.76-1-1.09-1.22-.33a2.25,2.25,0,0,0,1.2,2.9.66.66,0,0,0,.87-.22.64.64,0,0,0-.23-.87,1,1,0,0,1-.64-1.42ZM50.86,29.06c.61-.54-.29-1.43-.9-.9a2.28,2.28,0,0,0-.88,2,2.6,2.6,0,0,0,1.38,1.77.64.64,0,0,0,.64-1.1l-.08,0c-.29-.19-.64-.44-.69-.79S50.6,29.29,50.86,29.06Zm3.48-9.55,0,0c.66-.47,0-1.57-.64-1.09a2.39,2.39,0,0,0-1.15,1.78,2.63,2.63,0,0,0,.84,1.95c.56.6,1.46-.3.9-.9s-.65-1.2,0-1.71Z"/>
              </g>
              <g id="face_Cheeky" data-name="face/Cheeky">
                <path id="_-Ink-3" data-name="ðŸ–-Ink" class="cls-2" d="M111.33,83.56a2,2,0,0,1,1.75-1c3.06.36,3,4.07,1.87,6.24a5.7,5.7,0,0,1-5.38,2.88A5.83,5.83,0,0,1,104.49,88c-.56-1.41-.82-4,.68-5a.09.09,0,0,1,.1,0c.72.84.74,2.1,1.38,3a3.67,3.67,0,0,0,2.56,1.69,1.79,1.79,0,0,0,1.92-.92,1.18,1.18,0,0,0,.09-.86l-.06-.24A2.63,2.63,0,0,1,111.33,83.56Zm.81-16.27c1.6,1,4,3.23,2.31,5.63-2,2.12-4.92-.31-6.36-1.41-1.33-.85-2.82,1.34-1.59,2.34,10.36,7.67,14.56-6.31,6.45-7.7C112.06,66,111.73,67,112.14,67.29ZM95.3,60.63a2.08,2.08,0,0,1,3.75.5c.29.94-.11,1.79-.09,2.73a7.57,7.57,0,0,1-.28,2.46,4.12,4.12,0,0,1-4,3,4.94,4.94,0,0,1-4.29-2.9,6.6,6.6,0,0,1,0-5.09.12.12,0,0,1,.2-.05,14.31,14.31,0,0,1,1.69,2.28l.52.83c.4.62,1,1.41,1.74,1.36h.11c.21,0,.18,0,.34-.26A2.26,2.26,0,0,0,95,64.9l0-.05h0v0a3.86,3.86,0,0,1,0-.46V64.3C94.93,63.15,94.6,61.68,95.3,60.63Zm24.82,1c-.18-1.88,2.47-2.29,3.34-.9a6,6,0,0,1,.7,2.5l0,.41a4.71,4.71,0,0,1-.24,2.63,3.31,3.31,0,0,1-3.34,1.88,4.06,4.06,0,0,1-3.25-2.08c-.58-1.07-1.16-3.15-.45-4.26a.11.11,0,0,1,.18,0c.67.6.78,1.68,1.18,2.45a2.8,2.8,0,0,0,2,1.7c.9.11,1.24-.38,1-1.24C121,63.56,120.23,62.81,120.12,61.61ZM96,49.46l.43-.17c1.48-.56,3.51-1.2,4.72,0a2.23,2.23,0,0,1,.35,2.74c-.64,1.1-1.79,1.13-2.9,1.29a15,15,0,0,0-3.73,1,23.71,23.71,0,0,0-3.77,2c-1.14.74-2.29,2-3.66,2.18a.11.11,0,0,1-.13-.07c-.31-1.35.55-2.67,1.33-3.71A15.33,15.33,0,0,1,92,51.55,17,17,0,0,1,96,49.46Zm26.89,4.77.13,0a2.44,2.44,0,0,1,2.39.59,1.92,1.92,0,0,1,.47,2,2.13,2.13,0,0,1-1.48,1.47,24.5,24.5,0,0,1-7.74,0,27.8,27.8,0,0,1-3.41-.68l-.52-.15a5.91,5.91,0,0,1-2.67-1.23.43.43,0,0,1,.19-.71c1.18-.46,2.79-.21,4-.25,1.46,0,2.93-.15,4.39-.3S121.49,54.49,122.9,54.23Z"/>
              </g>
              <g id="facial-hair_Full" data-name="facial-hair/Full">
                <path id="_-Ink-4" data-name="ðŸ–-Ink" class="cls-2" d="M93.32,89a14.32,14.32,0,0,1,9.74-8,28.43,28.43,0,0,1,9.69-.45,18.59,18.59,0,0,1,5.08.92,7.45,7.45,0,0,1,3.3,2.73,15.44,15.44,0,0,1,2.13,4.67c.07.23.13.47.19.71a4.25,4.25,0,0,1-1.79,3.09,7.89,7.89,0,0,1-3.81,1.18,3.2,3.2,0,0,1-.37-.19c-2.09-1.19-3.56-4-6.19-3.63-2.35.34-3.89,3.29-5.29,5a18.42,18.42,0,0,1-12.61-3.39A7.33,7.33,0,0,1,93.32,89m33.18-3a17,17,0,0,0-1.35-2.9,16.48,16.48,0,0,0-7.71-6.84c-7.63-3.27-17.51-1-23.67,4.39a14.92,14.92,0,0,0-4.88,7.42,1.11,1.11,0,0,0-.52.28c-4.45-2.8-9-5.5-12.63-9.39a25,25,0,0,1-5.52-9.84.29.29,0,0,0-.57.08v.23c0-.14-.26-.07-.28.07-.6,4.47-1.34,9.2-.65,13.68A14.15,14.15,0,0,0,72,89.91a66.82,66.82,0,0,0,5.72,6.4A23.34,23.34,0,0,0,81.88,100a50.13,50.13,0,0,0,5.83,2.77c2,.86,4,1.66,6,2.35a56.71,56.71,0,0,0,12.61,2.76c3.44.33,7.37.69,10.67-.6a14.41,14.41,0,0,0,6.19-5,23.53,23.53,0,0,0,3.92-7.85c.8-2.93-.46-8-.63-8.52"/>
              </g>
            </g>
          </g>
        </g>
      </g>
    </g>
  </g>
</svg>
