<svg xmlns="http://www.w3.org/2000/svg" viewBox="0 0 512 512" width="512" height="512" preserveAspectRatio="xMidYMid meet" style="width: 100%; height: 100%; transform: translate3d(0px, 0px, 0px);"><defs><clipPath id="__lottie_element_2109"><rect width="512" height="512" x="0" y="0"></rect></clipPath><linearGradient id="__lottie_element_2113" spreadMethod="pad" gradientUnits="userSpaceOnUse" x1="-6.111999988555908" y1="-117.0260009765625" x2="0.16500000655651093" y2="118.35299682617188"><stop offset="0%" stop-color="rgb(139,132,216)"></stop><stop offset="50%" stop-color="rgb(56,44,197)"></stop><stop offset="100%" stop-color="rgb(37,29,131)"></stop></linearGradient><linearGradient id="__lottie_element_2114" spreadMethod="pad" gradientUnits="userSpaceOnUse" x1="135.5189971923828" y1="531.7930297851562" x2="-556.155029296875" y2="-1896.5240478515625"><stop offset="0%" stop-color="rgb(139,132,216)"></stop><stop offset="50%" stop-color="rgb(56,44,197)"></stop><stop offset="100%" stop-color="rgb(37,29,131)"></stop></linearGradient><linearGradient id="__lottie_element_2115" spreadMethod="pad" gradientUnits="userSpaceOnUse" x1="-563.4959716796875" y1="-586.9819946289062" x2="697.0469970703125" y2="766.3900146484375"><stop offset="0%" stop-color="rgb(255,197,0)"></stop><stop offset="50%" stop-color="rgb(255,124,58)"></stop><stop offset="100%" stop-color="rgb(255,40,112)"></stop></linearGradient><linearGradient id="__lottie_element_2116" spreadMethod="pad" gradientUnits="userSpaceOnUse" x1="-966.4810180664062" y1="-0.8949999809265137" x2="965.2479858398438" y2="-0.8949999809265137"><stop offset="0%" stop-color="rgb(139,132,216)"></stop><stop offset="50%" stop-color="rgb(56,44,197)"></stop><stop offset="100%" stop-color="rgb(37,29,131)"></stop></linearGradient><linearGradient id="__lottie_element_2120" spreadMethod="pad" gradientUnits="userSpaceOnUse" x1="-98.08799743652344" y1="-201.47000122070312" x2="453.9909973144531" y2="995.197021484375"><stop offset="0%" stop-color="rgb(227,141,221)"></stop><stop offset="50%" stop-color="rgb(221,204,6)"></stop><stop offset="100%" stop-color="rgb(255,238,0)"></stop></linearGradient><linearGradient id="__lottie_element_2124" spreadMethod="pad" gradientUnits="userSpaceOnUse" x1="-221.8249969482422" y1="-475.3320007324219" x2="287.10699462890625" y2="627.81201171875"><stop offset="0%" stop-color="rgb(227,141,221)"></stop><stop offset="50%" stop-color="rgb(188,127,234)"></stop><stop offset="100%" stop-color="rgb(56,44,197)"></stop></linearGradient><linearGradient id="__lottie_element_2128" spreadMethod="pad" gradientUnits="userSpaceOnUse" x1="-292.62200927734375" y1="-633.5390014648438" x2="235.85400390625" y2="511.96600341796875"><stop offset="0%" stop-color="rgb(227,141,221)"></stop><stop offset="50%" stop-color="rgb(188,127,234)"></stop><stop offset="100%" stop-color="rgb(56,44,197)"></stop></linearGradient><linearGradient id="__lottie_element_2135" spreadMethod="pad" gradientUnits="userSpaceOnUse" x1="-166.9340057373047" y1="3.0290000438690186" x2="-317.5979919433594" y2="66.30799865722656"><stop offset="0%" stop-color="rgb(139,132,216)"></stop><stop offset="50%" stop-color="rgb(56,44,197)"></stop><stop offset="100%" stop-color="rgb(37,29,131)"></stop></linearGradient><linearGradient id="__lottie_element_2139" spreadMethod="pad" gradientUnits="userSpaceOnUse" x1="-30.38800048828125" y1="-37.513999938964844" x2="-193.8979949951172" y2="31.15999984741211"><stop offset="0%" stop-color="rgb(139,132,216)"></stop><stop offset="50%" stop-color="rgb(56,44,197)"></stop><stop offset="100%" stop-color="rgb(37,29,131)"></stop></linearGradient><linearGradient id="__lottie_element_2143" spreadMethod="pad" gradientUnits="userSpaceOnUse" x1="-758.2009887695312" y1="-0.5139999985694885" x2="757.0889892578125" y2="-0.5139999985694885"><stop offset="0%" stop-color="rgb(139,132,216)"></stop><stop offset="50%" stop-color="rgb(56,44,197)"></stop><stop offset="100%" stop-color="rgb(37,29,131)"></stop></linearGradient><linearGradient id="__lottie_element_2153" spreadMethod="pad" gradientUnits="userSpaceOnUse" x1="-1072.9339599609375" y1="-0.8619999885559082" x2="1071.822021484375" y2="-0.8619999885559082"><stop offset="0%" stop-color="rgb(139,132,216)"></stop><stop offset="50%" stop-color="rgb(56,44,197)"></stop><stop offset="100%" stop-color="rgb(37,29,131)"></stop></linearGradient><linearGradient id="__lottie_element_2157" spreadMethod="pad" gradientUnits="userSpaceOnUse" x1="-786.6099853515625" y1="-0.28999999165534973" x2="784.8389892578125" y2="-0.28999999165534973"><stop offset="0%" stop-color="rgb(139,132,216)"></stop><stop offset="50%" stop-color="rgb(56,44,197)"></stop><stop offset="100%" stop-color="rgb(37,29,131)"></stop></linearGradient><linearGradient id="__lottie_element_2161" spreadMethod="pad" gradientUnits="userSpaceOnUse" x1="-175.697998046875" y1="278.86700439453125" x2="352.5060119628906" y2="-553.9439697265625"><stop offset="0%" stop-color="rgb(255,197,0)"></stop><stop offset="50%" stop-color="rgb(255,124,58)"></stop><stop offset="100%" stop-color="rgb(255,40,112)"></stop></linearGradient><linearGradient id="__lottie_element_2165" spreadMethod="pad" gradientUnits="userSpaceOnUse" x1="-78.31700134277344" y1="-169.21600341796875" x2="362.2699890136719" y2="785.7830200195312"><stop offset="0%" stop-color="rgb(227,141,221)"></stop><stop offset="50%" stop-color="rgb(188,127,234)"></stop><stop offset="100%" stop-color="rgb(56,44,197)"></stop></linearGradient><linearGradient id="__lottie_element_2169" spreadMethod="pad" gradientUnits="userSpaceOnUse" x1="-183.58700561523438" y1="-397.09100341796875" x2="237.76600646972656" y2="516.218017578125"><stop offset="0%" stop-color="rgb(227,141,221)"></stop><stop offset="50%" stop-color="rgb(188,127,234)"></stop><stop offset="100%" stop-color="rgb(56,44,197)"></stop></linearGradient><linearGradient id="__lottie_element_2173" spreadMethod="pad" gradientUnits="userSpaceOnUse" x1="-223.83999633789062" y1="-483.83599853515625" x2="179.31900024414062" y2="390.03900146484375"><stop offset="0%" stop-color="rgb(227,141,221)"></stop><stop offset="50%" stop-color="rgb(188,127,234)"></stop><stop offset="100%" stop-color="rgb(255,238,0)"></stop></linearGradient><linearGradient id="__lottie_element_2180" spreadMethod="pad" gradientUnits="userSpaceOnUse" x1="-72.71199798583984" y1="-78.25299835205078" x2="543.2890014648438" y2="-55.19300079345703"><stop offset="0%" stop-color="rgb(139,132,216)"></stop><stop offset="50%" stop-color="rgb(56,44,197)"></stop><stop offset="100%" stop-color="rgb(255,238,0)"></stop></linearGradient><linearGradient id="__lottie_element_2181" spreadMethod="pad" gradientUnits="userSpaceOnUse" x1="167.89700317382812" y1="74.73200225830078" x2="259.8380126953125" y2="-153.34100341796875"><stop offset="0%" stop-color="rgb(139,132,216)"></stop><stop offset="50%" stop-color="rgb(56,44,197)"></stop><stop offset="100%" stop-color="rgb(37,29,131)"></stop></linearGradient><linearGradient id="__lottie_element_2182" spreadMethod="pad" gradientUnits="userSpaceOnUse" x1="-120.00800323486328" y1="179.61300659179688" x2="184.9250030517578" y2="-262.8039855957031"><stop offset="0%" stop-color="rgb(255,144,133)"></stop><stop offset="50%" stop-color="rgb(253,128,160)"></stop><stop offset="100%" stop-color="rgb(251,111,187)"></stop></linearGradient><linearGradient id="__lottie_element_2183" spreadMethod="pad" gradientUnits="userSpaceOnUse" x1="232.6179962158203" y1="-106.10700225830078" x2="-324.13299560546875" y2="1244.029052734375"><stop offset="0%" stop-color="rgb(255,197,0)"></stop><stop offset="50%" stop-color="rgb(255,124,58)"></stop><stop offset="100%" stop-color="rgb(255,40,112)"></stop></linearGradient><linearGradient id="__lottie_element_2187" spreadMethod="pad" gradientUnits="userSpaceOnUse" x1="-664.9520263671875" y1="3.7920000553131104" x2="-418.2919921875" y2="538.4420166015625"><stop offset="0%" stop-color="rgb(227,141,221)"></stop><stop offset="50%" stop-color="rgb(188,127,234)"></stop><stop offset="100%" stop-color="rgb(56,44,197)"></stop></linearGradient><linearGradient id="__lottie_element_2191" spreadMethod="pad" gradientUnits="userSpaceOnUse" x1="-743.22998046875" y1="-157.23899841308594" x2="-463.73199462890625" y2="448.5899963378906"><stop offset="0%" stop-color="rgb(227,141,221)"></stop><stop offset="50%" stop-color="rgb(188,127,234)"></stop><stop offset="100%" stop-color="rgb(56,44,197)"></stop></linearGradient><linearGradient id="__lottie_element_2195" spreadMethod="pad" gradientUnits="userSpaceOnUse" x1="-758.6300048828125" y1="-128.1739959716797" x2="-562.2630004882812" y2="297.4649963378906"><stop offset="0%" stop-color="rgb(227,141,221)"></stop><stop offset="50%" stop-color="rgb(188,127,234)"></stop><stop offset="100%" stop-color="rgb(56,44,197)"></stop></linearGradient><linearGradient id="__lottie_element_2199" spreadMethod="pad" gradientUnits="userSpaceOnUse" x1="-739.655029296875" y1="-49.624000549316406" x2="-609.1959838867188" y2="233.1529998779297"><stop offset="0%" stop-color="rgb(227,141,221)"></stop><stop offset="50%" stop-color="rgb(188,127,234)"></stop><stop offset="100%" stop-color="rgb(56,44,197)"></stop></linearGradient></defs><g clip-path="url(#__lottie_element_2109)"><g transform="matrix(0.14628571271896362,0,0,0.14628571271896362,0,0)" opacity="1" style="display: block;"><g opacity="1" transform="matrix(1,0,0,1,2175.006103515625,2474.323974609375)"><path fill="rgb(255,255,255)" fill-opacity="1" d=" M218.84500122070312,98.01799774169922 C185.67999267578125,87.01699829101562 160.88999938964844,58.86899948120117 153.89999389648438,24.273000717163086 C153.89999389648438,24.273000717163086 105.62899780273438,-214.63699340820312 105.62899780273438,-214.63699340820312 C105.62899780273438,-214.63699340820312 -307.29998779296875,-199.9739990234375 -307.29998779296875,-199.9739990234375 C-307.29998779296875,-199.9739990234375 -358.1199951171875,48.917999267578125 -358.1199951171875,48.917999267578125 C-365.23699951171875,83.7750015258789 -336.74700927734375,118.74500274658203 -303.9339904785156,131.58299255371094 C-303.9339904785156,131.58299255371094 -131.1739959716797,199.17799377441406 -131.1739959716797,199.17799377441406 C-99.04199981689453,211.75 -64.5009994506836,216.75799560546875 -30.172000885009766,213.8209991455078 C-30.172000885009766,213.8209991455078 334.9330139160156,182.58700561523438 334.9330139160156,182.58700561523438 C345.6059875488281,181.6739959716797 354.1679992675781,173.2830047607422 355.4100036621094,162.52000427246094 C356.6520080566406,151.7570037841797 364.1300048828125,139.6719970703125 353.9519958496094,136.29600524902344 C353.9519958496094,136.29600524902344 218.84500122070312,98.01799774169922 218.84500122070312,98.01799774169922z"></path></g><g opacity="1" transform="matrix(1,0,0,1,2182.112060546875,2461.02587890625)"><path fill="url(#__lottie_element_2113)" fill-opacity="1" d=" M215.82400512695312,96.78500366210938 C182.69200134277344,85.9219970703125 157.92799377441406,58.12900161743164 150.94500732421875,23.968000411987305 C150.94500732421875,23.968000411987305 102.72200012207031,-211.93899536132812 102.72200012207031,-211.93899536132812 C102.72200012207031,-211.93899536132812 -300.1409912109375,-197.44500732421875 -300.1409912109375,-197.44500732421875 C-300.1409912109375,-197.44500732421875 -350.9100036621094,48.31800079345703 -350.9100036621094,48.31800079345703 C-358.0199890136719,82.73699951171875 -339.2080078125,117.25199890136719 -306.4280090332031,129.9290008544922 C-306.4280090332031,129.9290008544922 -133.84100341796875,196.6739959716797 -133.84100341796875,196.6739959716797 C-101.74099731445312,209.08799743652344 -67.23699951171875,214.0330047607422 -32.94200134277344,211.13299560546875 C-32.94200134277344,211.13299560546875 331.7959899902344,180.29100036621094 331.7959899902344,180.29100036621094 C342.4580078125,179.38900756835938 351.010986328125,171.10499572753906 352.25201416015625,160.4770050048828 C353.4930114746094,149.8489990234375 347.0790100097656,139.81700134277344 336.9110107421875,136.48399353027344 C336.9110107421875,136.48399353027344 215.82400512695312,96.78500366210938 215.82400512695312,96.78500366210938z"></path></g><g opacity="1" transform="matrix(1,0,0,1,2091.48095703125,1520.20703125)"><path fill="url(#__lottie_element_2114)" fill-opacity="1" d=" M965.864990234375,573.3699951171875 C965.864990234375,573.3699951171875 965.864990234375,-497.8940124511719 965.864990234375,-497.8940124511719 C965.864990234375,-519.8610229492188 947.760986328125,-538.5609741210938 925.5759887695312,-539.4530029296875 C925.5759887695312,-539.4530029296875 -914.875,-613.4359741210938 -914.875,-613.4359741210938 C-942.8809814453125,-614.56201171875 -965.864990234375,-595.2100219726562 -965.864990234375,-570.427001953125 C-965.864990234375,-570.427001953125 -965.864990234375,613.4829711914062 -965.864990234375,613.4829711914062 C-965.864990234375,613.4829711914062 965.864990234375,573.3699951171875 965.864990234375,573.3699951171875z"></path></g><g opacity="1" transform="matrix(1,0,0,1,2098.49609375,1589.2679443359375)"><path fill="rgb(248,247,237)" fill-opacity="1" d=" M-915.9550170898438,-482.7239990234375 C-915.9550170898438,-482.7239990234375 -915.9550170898438,442.0790100097656 -915.9550170898438,442.0790100097656 C-915.9550170898438,465.1619873046875 -894.6170043945312,483.4419860839844 -868.6099853515625,482.7019958496094 C-868.6099853515625,482.7019958496094 878.093994140625,433.0270080566406 878.093994140625,433.0270080566406 C898.9409790039062,432.4339904785156 915.9550170898438,415.1059875488281 915.9550170898438,394.51800537109375 C915.9550170898438,394.51800537109375 915.9550170898438,-430.29998779296875 915.9550170898438,-430.29998779296875 C915.9550170898438,-430.29998779296875 -915.9550170898438,-482.7239990234375 -915.9550170898438,-482.7239990234375z"></path></g><g opacity="1" transform="matrix(1,0,0,1,2098.49609375,1067.9820556640625)"><path fill="url(#__lottie_element_2115)" fill-opacity="1" d=" M915.9550170898438,98.98600006103516 C915.9550170898438,98.98600006103516 915.9550170898438,4.328000068664551 915.9550170898438,4.328000068664551 C915.9550170898438,-15.838000297546387 899.2890014648438,-32.959999084472656 878.8709716796875,-33.72100067138672 C878.8709716796875,-33.72100067138672 -869.5770263671875,-98.94999694824219 -869.5770263671875,-98.94999694824219 C-895.052978515625,-99.9000015258789 -915.9550170898438,-82.18000030517578 -915.9550170898438,-59.569000244140625 C-915.9550170898438,-59.569000244140625 -915.9550170898438,46.5629997253418 -915.9550170898438,46.5629997253418 C-915.9550170898438,46.5629997253418 915.9550170898438,98.98600006103516 915.9550170898438,98.98600006103516z"></path></g><g opacity="1" transform="matrix(1,0,0,1,0,0)"><g opacity="1" transform="matrix(1,0,0,1,1294.1400146484375,1042.010009765625)"><path fill="rgb(157,48,96)" fill-opacity="1" d=" M16.211000442504883,0.5320000052452087 C16.211000442504883,8.479000091552734 8.968999862670898,14.692999839782715 0.02199999988079071,14.40999984741211 C-8.937999725341797,14.126999855041504 -16.211000442504883,7.435999870300293 -16.211000442504883,-0.5320000052452087 C-16.211000442504883,-8.50100040435791 -8.937999725341797,-14.713000297546387 0.02199999988079071,-14.407999992370605 C8.968999862670898,-14.104000091552734 16.211000442504883,-7.414999961853027 16.211000442504883,0.5320000052452087z"></path></g><g opacity="1" transform="matrix(1,0,0,1,1364.1109619140625,1044.3070068359375)"><path fill="rgb(157,48,96)" fill-opacity="1" d=" M16.020999908447266,0.5260000228881836 C16.020999908447266,8.427000045776367 8.86400032043457,14.604999542236328 0.02199999988079071,14.324999809265137 C-8.833000183105469,14.045000076293945 -16.020999908447266,7.395999908447266 -16.020999908447266,-0.5260000228881836 C-16.020999908447266,-8.447999954223633 -8.833000183105469,-14.625 0.02199999988079071,-14.324000358581543 C8.86400032043457,-14.02299976348877 16.020999908447266,-7.374000072479248 16.020999908447266,0.5260000228881836z"></path></g><g opacity="1" transform="matrix(1,0,0,1,1433.2659912109375,1046.5780029296875)"><path fill="rgb(157,48,96)" fill-opacity="1" d=" M15.835000038146973,0.5199999809265137 C15.835000038146973,8.37399959564209 8.760000228881836,14.517999649047852 0.020999999716877937,14.241999626159668 C-8.730999946594238,13.96500015258789 -15.835000038146973,7.355999946594238 -15.835000038146973,-0.5199999809265137 C-15.835000038146973,-8.395000457763672 -8.730999946594238,-14.538000106811523 0.020999999716877937,-14.239999771118164 C8.760000228881836,-13.942000389099121 15.835000038146973,-7.334000110626221 15.835000038146973,0.5199999809265137z"></path></g></g><g opacity="1" transform="matrix(1,0,0,1,2091.48095703125,2249.89501953125)"><path fill="url(#__lottie_element_2116)" fill-opacity="1" d=" M-965.864990234375,-116.20500183105469 C-965.864990234375,-116.20500183105469 -965.864990234375,120.23400115966797 -965.864990234375,120.23400115966797 C-965.864990234375,145.01699829101562 -942.8809814453125,164.3209991455078 -914.875,163.13699340820312 C-914.875,163.13699340820312 925.5759887695312,85.3290023803711 925.5759887695312,85.3290023803711 C947.760986328125,84.39099884033203 965.864990234375,65.65399932861328 965.864990234375,43.6870002746582 C965.864990234375,43.6870002746582 965.864990234375,-163.18899536132812 965.864990234375,-163.18899536132812 C965.864990234375,-163.18899536132812 -965.864990234375,-116.20500183105469 -965.864990234375,-116.20500183105469z"></path></g></g><g transform="matrix(0.15251436829566956,0,0,0.15251436829566956,266.8380126953125,208.67218017578125)" opacity="1" style="display: block;"><g opacity="1" transform="matrix(1,0,0,1,0,0)"><path fill="url(#__lottie_element_2120)" fill-opacity="1" d=" M507.4330139160156,206.38099670410156 C507.4330139160156,206.38099670410156 -507.4330139160156,211.8800048828125 -507.4330139160156,211.8800048828125 C-507.4330139160156,211.8800048828125 -507.4330139160156,-211.8800048828125 -507.4330139160156,-211.8800048828125 C-507.4330139160156,-211.8800048828125 507.4330139160156,-193.41700744628906 507.4330139160156,-193.41700744628906 C507.4330139160156,-193.41700744628906 507.4330139160156,206.38099670410156 507.4330139160156,206.38099670410156z"></path></g></g><g transform="matrix(0.13897141814231873,0,0,0.13897141814231873,387.3389587402344,209.67599487304688)" opacity="1" style="display: block;"><g opacity="1" transform="matrix(1,0,0,1,0,0)"><path fill="url(#__lottie_element_2124)" fill-opacity="1" d=" M256.76300048828125,196.41299438476562 C256.76300048828125,196.41299438476562 -256.76300048828125,199.1959991455078 -256.76300048828125,199.1959991455078 C-256.76300048828125,199.1959991455078 -256.76300048828125,-199.1959991455078 -256.76300048828125,-199.1959991455078 C-256.76300048828125,-199.1959991455078 256.76300048828125,-189.85400390625 256.76300048828125,-189.85400390625 C256.76300048828125,-189.85400390625 256.76300048828125,196.41299438476562 256.76300048828125,196.41299438476562z"></path></g></g><g transform="matrix(0.14262939989566803,0,0,0.14262939989566803,308.75384521484375,265.73370361328125)" opacity="1" style="display: block;"><g opacity="1" transform="matrix(1,0,0,1,0,0)"><path fill="url(#__lottie_element_2128)" fill-opacity="1" d=" M793.9669799804688,99.91999816894531 C793.9669799804688,99.91999816894531 -793.9669799804688,136.35299682617188 -793.9669799804688,136.35299682617188 C-793.9669799804688,136.35299682617188 -793.9669799804688,-122.85299682617188 -793.9669799804688,-122.85299682617188 C-793.9669799804688,-122.85299682617188 793.9669799804688,-136.35299682617188 793.9669799804688,-136.35299682617188 C793.9669799804688,-136.35299682617188 793.9669799804688,99.91999816894531 793.9669799804688,99.91999816894531z"></path></g></g><g transform="matrix(0.14628571271896362,0,0,0.14628571271896362,305.9539489746094,242.82009887695312)" opacity="0.48" style="mix-blend-mode: soft-light; display: block;"><g opacity="1" transform="matrix(1,0,0,1,0,0)"><path fill="rgb(248,247,237)" fill-opacity="1" d=" M766.52099609375,295.3659973144531 C615.3610229492188,244.31100463867188 490.3070068359375,348.4519958496094 381.6520080566406,266.4549865722656 C259.156005859375,174.01300048828125 358.1659851074219,-3.5799999237060547 244.8560028076172,-108.2030029296875 C87.44999694824219,-253.54299926757812 -227.24099731445312,-28.145000457763672 -363.9169921875,-165.1649932861328 C-457.885009765625,-259.3689880371094 -347.0379943847656,-410.18798828125 -426.6080017089844,-568.8380126953125 C-467.06500244140625,-649.5040283203125 -542.875,-704.4970092773438 -634.8980102539062,-741.8779907226562 C-634.8980102539062,-741.8779907226562 -914.8759765625,-753.1329956054688 -914.8759765625,-753.1329956054688 C-942.8820190429688,-754.2589721679688 -965.864990234375,-734.906982421875 -965.864990234375,-710.1240234375 C-965.864990234375,-710.1240234375 -965.864990234375,473.7860107421875 -965.864990234375,473.7860107421875 C-965.864990234375,473.7860107421875 -965.864990234375,710.2249755859375 -965.864990234375,710.2249755859375 C-965.864990234375,735.0079956054688 -942.8820190429688,754.31201171875 -914.8759765625,753.1279907226562 C-914.8759765625,753.1279907226562 925.5750122070312,675.3200073242188 925.5750122070312,675.3200073242188 C947.760986328125,674.3820190429688 965.864990234375,655.64501953125 965.864990234375,633.677978515625 C965.864990234375,633.677978515625 965.864990234375,480.80999755859375 965.864990234375,480.80999755859375 C901.051025390625,366.22601318359375 829.5020141601562,316.63800048828125 766.52099609375,295.3659973144531z"></path></g></g><g transform="matrix(0.14628571271896362,0,0,0.14628571271896362,220.00405883789062,432.1237487792969)" opacity="1" style="display: block;"><g opacity="1" transform="matrix(1,0,0,1,0,0)"><path fill="url(#__lottie_element_2135)" fill-opacity="1" d=" M1072.3780517578125,-79.0459976196289 C1072.3780517578125,-79.0459976196289 -1072.3780517578125,-97.7249984741211 -1072.3780517578125,-97.7249984741211 C-1072.3780517578125,-97.7249984741211 -1072.3780517578125,-42.45600128173828 -1072.3780517578125,-42.45600128173828 C-1072.3780517578125,-27.454999923706055 -1063.02294921875,-14.699000358581543 -1050.35400390625,-12.425999641418457 C-1050.35400390625,-12.425999641418457 -443.8810119628906,96.40799713134766 -443.8810119628906,96.40799713134766 C-436.6839904785156,97.69999694824219 -429.385009765625,98.04299926757812 -422.12200927734375,97.43000030517578 C-422.12200927734375,97.43000030517578 1049.071044921875,-26.659000396728516 1049.071044921875,-26.659000396728516 C1062.2049560546875,-27.767000198364258 1072.3780517578125,-40.5620002746582 1072.3780517578125,-55.9739990234375 C1072.3780517578125,-55.9739990234375 1072.3780517578125,-79.0459976196289 1072.3780517578125,-79.0459976196289z"></path></g></g><g transform="matrix(0.14628571271896362,0,0,0.14628571271896362,170.6259002685547,340.9208984375)" opacity="1" style="display: block;"><g opacity="1" transform="matrix(1,0,0,1,0,0)"><path fill="url(#__lottie_element_2139)" fill-opacity="1" d=" M719.4990234375,454.8179931640625 C719.4990234375,454.8179931640625 -711.2269897460938,555.926025390625 -711.2269897460938,555.926025390625 C-736.8289794921875,557.7349853515625 -757.64501953125,538.510009765625 -757.64501953125,512.9810180664062 C-757.64501953125,512.9810180664062 -757.64501953125,-509.8179931640625 -757.64501953125,-509.8179931640625 C-757.64501953125,-535.3469848632812 -736.8289794921875,-556.0440063476562 -711.2269897460938,-556.0440063476562 C-711.2269897460938,-556.0440063476562 719.4990234375,-556.0440063476562 719.4990234375,-556.0440063476562 C740.5910034179688,-556.0440063476562 757.64501953125,-537.3350219726562 757.64501953125,-514.2570190429688 C757.64501953125,-514.2570190429688 757.64501953125,410.3349914550781 757.64501953125,410.3349914550781 C757.64501953125,433.4129943847656 740.5910034179688,453.3269958496094 719.4990234375,454.8179931640625z"></path></g></g><g transform="matrix(0.14628571271896362,0,0,0.14628571271896362,173.96311950683594,340.9208984375)" opacity="1" style="display: block;"><g opacity="1" transform="matrix(1,0,0,1,0,0)"><path fill="url(#__lottie_element_2143)" fill-opacity="1" d=" M719.4990234375,454.8179931640625 C719.4990234375,454.8179931640625 -711.2269897460938,555.926025390625 -711.2269897460938,555.926025390625 C-736.8300170898438,557.7349853515625 -757.64501953125,538.510009765625 -757.64501953125,512.9810180664062 C-757.64501953125,512.9810180664062 -757.64501953125,-509.8179931640625 -757.64501953125,-509.8179931640625 C-757.64501953125,-535.3469848632812 -736.8300170898438,-556.0440063476562 -711.2269897460938,-556.0440063476562 C-711.2269897460938,-556.0440063476562 719.4990234375,-556.0440063476562 719.4990234375,-556.0440063476562 C740.5919799804688,-556.0440063476562 757.64501953125,-537.3350219726562 757.64501953125,-514.2570190429688 C757.64501953125,-514.2570190429688 757.64501953125,410.3349914550781 757.64501953125,410.3349914550781 C757.64501953125,433.4129943847656 740.5919799804688,453.3269958496094 719.4990234375,454.8179931640625z"></path></g></g><g transform="matrix(0.14628571271896362,0,0,0.14628571271896362,174.7672576904297,339.5225524902344)" opacity="1" style="display: block;"><g opacity="1" transform="matrix(1,0,0,1,0,0)"><path fill="rgb(248,247,237)" fill-opacity="1" d=" M669.4320068359375,399.1910095214844 C669.4320068359375,399.1910095214844 -663.1400146484375,487.0169982910156 -663.1400146484375,487.0169982910156 C-683.9739990234375,488.3900146484375 -700.905029296875,472.6109924316406 -700.905029296875,451.7699890136719 C-700.905029296875,451.7699890136719 -700.905029296875,-443.6919860839844 -700.905029296875,-443.6919860839844 C-700.905029296875,-464.5329895019531 -683.9739990234375,-481.4989929199219 -663.1400146484375,-481.5849914550781 C-663.1400146484375,-481.5849914550781 669.4320068359375,-487.1000061035156 669.4320068359375,-487.1000061035156 C686.8319702148438,-487.1719970703125 700.905029296875,-471.8420104980469 700.905029296875,-452.8590087890625 C700.905029296875,-452.8590087890625 700.905029296875,362.7460021972656 700.905029296875,362.7460021972656 C700.905029296875,381.7279968261719 686.8319702148438,398.0450134277344 669.4320068359375,399.1910095214844z"></path></g></g><g transform="matrix(0.14628571271896362,0,0,0.14628571271896362,179.54977416992188,263.6766357421875)" opacity="1" style="display: block;"><g opacity="1" transform="matrix(1,0,0,1,0,0)"><path fill="rgb(248,247,237)" fill-opacity="1" d=" M16.475000381469727,-0.029999999329447746 C16.475000381469727,9.472999572753906 9.112000465393066,17.198999404907227 0.017999999225139618,17.226999282836914 C-9.086999893188477,17.2549991607666 -16.475000381469727,9.555999755859375 -16.475000381469727,0.03099999949336052 C-16.475000381469727,-9.494000434875488 -9.086999893188477,-17.219999313354492 0.017999999225139618,-17.226999282836914 C9.112000465393066,-17.233999252319336 16.475000381469727,-9.534000396728516 16.475000381469727,-0.029999999329447746z"></path></g></g><g transform="matrix(0.14628571271896362,0,0,0.14628571271896362,220.00405883789062,422.8919677734375)" opacity="1" style="display: block;"><g opacity="1" transform="matrix(1,0,0,1,0,0)"><path fill="url(#__lottie_element_2153)" fill-opacity="1" d=" M369.0669860839844,-110.11599731445312 C369.0669860839844,-110.11599731445312 -1072.3780517578125,-3.690000057220459 -1072.3780517578125,-3.690000057220459 C-1072.3780517578125,-3.690000057220459 -443.8810119628906,109.09600067138672 -443.8810119628906,109.09600067138672 C-436.6839904785156,110.38800048828125 -429.385009765625,110.73100280761719 -422.12200927734375,110.11799621582031 C-422.12200927734375,110.11799621582031 1072.3780517578125,-15.937000274658203 1072.3780517578125,-15.937000274658203 C1072.3780517578125,-15.937000274658203 391.9960021972656,-109.39299774169922 391.9960021972656,-109.39299774169922 C384.3869934082031,-110.43800354003906 376.7130126953125,-110.68000030517578 369.0669860839844,-110.11599731445312z"></path></g></g><g transform="matrix(0.14628571271896362,0,0,0.14628571271896362,208.8389434814453,420.3212890625)" opacity="0.3" style="mix-blend-mode: multiply; display: block;"><g opacity="1" transform="matrix(1,0,0,1,0,0)" style="mix-blend-mode: multiply;"><path fill="url(#__lottie_element_2157)" fill-opacity="1" d=" M-785.7239990234375,16.55900001525879 C-785.7239990234375,16.55900001525879 414.3210144042969,-73.36399841308594 414.3210144042969,-73.36399841308594 C414.3210144042969,-73.36399841308594 785.7239990234375,-22.760000228881836 785.7239990234375,-22.760000228881836 C785.7239990234375,-22.760000228881836 -403.9830017089844,73.36399841308594 -403.9830017089844,73.36399841308594 C-403.9830017089844,73.36399841308594 -785.7239990234375,16.55900001525879 -785.7239990234375,16.55900001525879z"></path></g></g><g transform="matrix(0.14628571271896362,0,0,0.14628571271896362,0.0000152587890625,0)" opacity="1" style="display: block;"><g opacity="1" transform="matrix(1,0,0,1,1194.697998046875,1929.133056640625)"><path fill="url(#__lottie_element_2161)" fill-opacity="1" d=" M701.0689697265625,77.86000061035156 C701.0689697265625,77.86000061035156 -701.0689697265625,95.27899932861328 -701.0689697265625,95.27899932861328 C-701.0689697265625,95.27899932861328 -701.0689697265625,-63.11899948120117 -701.0689697265625,-63.11899948120117 C-701.0689697265625,-80.87999725341797 -686.6710205078125,-95.27899932861328 -668.9099731445312,-95.27899932861328 C-668.9099731445312,-95.27899932861328 668.9099731445312,-95.27899932861328 668.9099731445312,-95.27899932861328 C686.6710205078125,-95.27899932861328 701.0689697265625,-80.87999725341797 701.0689697265625,-63.11899948120117 C701.0689697265625,-63.11899948120117 701.0689697265625,77.86000061035156 701.0689697265625,77.86000061035156z"></path></g><g opacity="1" transform="matrix(1,0,0,1,574.72802734375,1922.489990234375)"><path fill="rgb(157,48,96)" fill-opacity="1" d=" M19.430999755859375,-0.11299999803304672 C19.430999755859375,9.677000045776367 10.74899959564209,17.673999786376953 0.02500000037252903,17.749000549316406 C-10.71399974822998,17.823999404907227 -19.430999755859375,9.928000450134277 -19.430999755859375,0.11299999803304672 C-19.430999755859375,-9.70199966430664 -10.71399974822998,-17.698999404907227 0.02500000037252903,-17.749000549316406 C10.74899959564209,-17.798999786376953 19.430999755859375,-9.902999877929688 19.430999755859375,-0.11299999803304672z"></path></g><g opacity="1" transform="matrix(1,0,0,1,645.0889892578125,1922.0810546875)"><path fill="rgb(157,48,96)" fill-opacity="1" d=" M19.253000259399414,-0.1120000034570694 C19.253000259399414,9.633000373840332 10.64900016784668,17.593000411987305 0.024000000208616257,17.66699981689453 C-10.616000175476074,17.740999221801758 -19.253000259399414,9.881999969482422 -19.253000259399414,0.1120000034570694 C-19.253000259399414,-9.657999992370605 -10.616000175476074,-17.618000030517578 0.024000000208616257,-17.66699981689453 C10.64900016784668,-17.715999603271484 19.253000259399414,-9.857000350952148 19.253000259399414,-0.1120000034570694z"></path></g><g opacity="1" transform="matrix(1,0,0,1,714.802978515625,1921.677001953125)"><path fill="rgb(157,48,96)" fill-opacity="1" d=" M19.076000213623047,-0.11100000143051147 C19.076000213623047,9.58899974822998 10.552000045776367,17.51300048828125 0.024000000208616257,17.586000442504883 C-10.519000053405762,17.65999984741211 -19.076000213623047,9.836000442504883 -19.076000213623047,0.11100000143051147 C-19.076000213623047,-9.61400032043457 -10.519000053405762,-17.53700065612793 0.024000000208616257,-17.586000442504883 C10.552000045776367,-17.635000228881836 19.076000213623047,-9.810999870300293 19.076000213623047,-0.11100000143051147z"></path></g></g><g transform="matrix(0,0,0,0,142.82122802734375,332.1003112792969)" opacity="1" style="display: block;"><g opacity="1" transform="matrix(1,0,0,1,0,0)"><path fill="url(#__lottie_element_2165)" fill-opacity="1" d=" M396.37298583984375,161.12600708007812 C396.37298583984375,161.12600708007812 -396.37298583984375,193.88099670410156 -396.37298583984375,193.88099670410156 C-396.37298583984375,193.88099670410156 -396.37298583984375,-180.58799743652344 -396.37298583984375,-180.58799743652344 C-396.37298583984375,-180.58799743652344 396.37298583984375,-193.88099670410156 396.37298583984375,-193.88099670410156 C396.37298583984375,-193.88099670410156 396.37298583984375,161.12600708007812 396.37298583984375,161.12600708007812z"></path></g></g><g transform="matrix(0.0030293515883386135,0,0,0.0030293515883386135,237.2150115966797,329.0098876953125)" opacity="1" style="display: block;"><g opacity="1" transform="matrix(1,0,0,1,0,0)"><path fill="url(#__lottie_element_2169)" fill-opacity="1" d=" M202.1490020751953,163.61399841308594 C202.1490020751953,163.61399841308594 -202.1490020751953,180.31900024414062 -202.1490020751953,180.31900024414062 C-202.1490020751953,180.31900024414062 -202.1490020751953,-173.5399932861328 -202.1490020751953,-173.5399932861328 C-202.1490020751953,-173.5399932861328 202.1490020751953,-180.31900024414062 202.1490020751953,-180.31900024414062 C202.1490020751953,-180.31900024414062 202.1490020751953,163.61399841308594 202.1490020751953,163.61399841308594z"></path></g></g><g transform="matrix(0.0398450642824173,0,0,0.0398450642824173,175.81202697753906,380.3187255859375)" opacity="1" style="display: block;"><g opacity="1" transform="matrix(1,0,0,1,0,0)"><path fill="url(#__lottie_element_2173)" fill-opacity="1" d=" M621.89599609375,68.16100311279297 C621.89599609375,68.16100311279297 -621.89599609375,142.21800231933594 -621.89599609375,142.21800231933594 C-621.89599609375,142.21800231933594 -621.89599609375,-86.83899688720703 -621.89599609375,-86.83899688720703 C-621.89599609375,-86.83899688720703 621.89599609375,-142.21800231933594 621.89599609375,-142.21800231933594 C621.89599609375,-142.21800231933594 621.89599609375,68.16100311279297 621.89599609375,68.16100311279297z"></path></g></g><g transform="matrix(0.14628571271896362,0,0,0.14628571271896362,173.05526733398438,340.96038818359375)" opacity="0.48" style="mix-blend-mode: soft-light; display: block;"><g opacity="1" transform="matrix(1,0,0,1,0,0)" style="mix-blend-mode: soft-light;"><path fill="rgb(248,247,237)" fill-opacity="1" d=" M380.9949951171875,174.0290069580078 C270.6990051269531,114.68399810791016 183.97300720214844,189.88099670410156 100.2770004272461,115.68800354003906 C49.53499984741211,70.70700073242188 74.4469985961914,37.165000915527344 12.010000228881836,-30.054000854492188 C-57.14400100708008,-104.50399780273438 -102.16699981689453,-79.47699737548828 -171.6649932861328,-146.48300170898438 C-259.5409851074219,-231.20700073242188 -215.58999633789062,-297.125 -291.2850036621094,-357.9540100097656 C-383.1130065917969,-431.7489929199219 -482.1440124511719,-363.4469909667969 -569.5579833984375,-434.2179870605469 C-607.260009765625,-464.74200439453125 -627.9459838867188,-509.1189880371094 -638.7490234375,-556.3140258789062 C-638.7490234375,-556.3140258789062 -724.2789916992188,-556.3140258789062 -724.2789916992188,-556.3140258789062 C-739.2670288085938,-556.3140258789062 -751.43798828125,-544.166015625 -751.43798828125,-529.1810302734375 C-751.43798828125,-529.1810302734375 -751.43798828125,531.0390014648438 -751.43798828125,531.0390014648438 C-751.43798828125,546.0239868164062 -739.2670288085938,557.3079833984375 -724.2789916992188,556.2440185546875 C-724.2789916992188,556.2440185546875 733.864990234375,452.74200439453125 733.864990234375,452.74200439453125 C741.02099609375,452.2340087890625 747.3660278320312,448.0559997558594 751.43798828125,441.9989929199219 C644.697998046875,438.1090087890625 579.1220092773438,402.32598876953125 537.2039794921875,365.3349914550781 C455.20098876953125,292.9700012207031 469.42401123046875,221.60800170898438 380.9949951171875,174.0290069580078z"></path></g></g><g transform="matrix(0.14628571271896362,0,0,0.14628571271896362,0,0)" opacity="1" style="display: block;"><g opacity="1" transform="matrix(1,0,0,1,2734.572998046875,2256.4951171875)"><path fill="url(#__lottie_element_2180)" fill-opacity="1" d=" M206.94400024414062,-464.6830139160156 C206.94400024414062,-464.6830139160156 291.3450012207031,430.406005859375 291.3450012207031,430.406005859375 C292.6300048828125,444.0360107421875 283.3169860839844,456.135986328125 270.6130065917969,457.2919921875 C270.6130065917969,457.2919921875 -168.9290008544922,502.06298828125 -168.9290008544922,502.06298828125 C-195.79400634765625,503.47698974609375 -210.04800415039062,489.05999755859375 -211.2689971923828,474.57000732421875 C-211.2689971923828,474.57000732421875 -291.3919982910156,-475.9309997558594 -291.3919982910156,-475.9309997558594 C-292.5669860839844,-489.875 -279.2409973144531,-502.3760070800781 -252.77699279785156,-502.156005859375 C-252.77699279785156,-502.156005859375 181.80299377441406,-489.1619873046875 181.80299377441406,-489.1619873046875 C194.40699768066406,-488.84100341796875 205.70399475097656,-477.8280029296875 206.94400024414062,-464.6830139160156z"></path></g><g opacity="1" transform="matrix(1,0,0,1,2753.43798828125,2256.56494140625)"><path fill="url(#__lottie_element_2181)" fill-opacity="1" d=" M207.55299377441406,-466.10400390625 C207.55299377441406,-466.10400390625 292.739013671875,433.552001953125 292.739013671875,433.552001953125 C294.0360107421875,447.25299072265625 284.6929931640625,459.4179992675781 271.94000244140625,460.5820007324219 C271.94000244140625,460.5820007324219 -183.66099548339844,502.17401123046875 -183.66099548339844,502.17401123046875 C-197.9320068359375,503.47601318359375 -210.6540069580078,492.6199951171875 -211.88699340820312,478.0530090332031 C-211.88699340820312,478.0530090332031 -292.7690124511719,-477.4519958496094 -292.7690124511719,-477.4519958496094 C-293.9549865722656,-491.4679870605469 -283.3330078125,-502.63299560546875 -269.2049865722656,-502.27099609375 C-269.2049865722656,-502.27099609375 182.30299377441406,-490.7080078125 182.30299377441406,-490.7080078125 C194.95599365234375,-490.3840026855469 206.302001953125,-479.31500244140625 207.55299377441406,-466.10400390625z"></path></g><g opacity="1" transform="matrix(1,0,0,1,2755.6298828125,2272.639892578125)"><path fill="rgb(248,247,237)" fill-opacity="1" d=" M195.73300170898438,-433.3919982910156 C195.73300170898438,-433.3919982910156 274.5190124511719,401.19500732421875 274.5190124511719,401.19500732421875 C275.72698974609375,413.98699951171875 266.9779968261719,425.3240051269531 255.04600524902344,426.385009765625 C255.04600524902344,426.385009765625 -173.26100158691406,464.4599914550781 -173.26100158691406,464.4599914550781 C-186.5229949951172,465.6390075683594 -198.3459930419922,455.5140075683594 -199.4980010986328,441.9630126953125 C-199.4980010986328,441.9630126953125 -274.5450134277344,-441.2449951171875 -274.5450134277344,-441.2449951171875 C-275.656005859375,-454.3210144042969 -265.78399658203125,-464.8039855957031 -252.64500427246094,-464.54901123046875 C-252.64500427246094,-464.54901123046875 172.1009979248047,-456.2919921875 172.1009979248047,-456.2919921875 C183.94500732421875,-456.06201171875 194.56500244140625,-445.760009765625 195.73300170898438,-433.3919982910156z"></path></g><g opacity="1" transform="matrix(1,0,0,1,2722.008056640625,1882.386962890625)"><g opacity="1" transform="matrix(1,0,0,1,0,0)"><path fill="url(#__lottie_element_2182)" fill-opacity="1" d=" M229.35499572753906,-46.138999938964844 C228.18699645996094,-58.50699996948242 217.5659942626953,-68.80899810791016 205.7220001220703,-69.03900146484375 C205.7220001220703,-69.03900146484375 -219.0229949951172,-77.2959976196289 -219.0229949951172,-77.2959976196289 C-232.16200256347656,-77.5510025024414 -242.03399658203125,-67.06800079345703 -240.9219970703125,-53.992000579833984 C-240.9219970703125,-53.992000579833984 -230.23500061035156,71.78800201416016 -230.23500061035156,71.78800201416016 C-230.23500061035156,71.78800201416016 241.00799560546875,77.30000305175781 241.00799560546875,77.30000305175781 C241.00799560546875,77.30000305175781 229.35499572753906,-46.138999938964844 229.35499572753906,-46.138999938964844z"></path></g></g><g opacity="1" transform="matrix(1,0,0,1,2718.488037109375,1787.68798828125)"><path fill="url(#__lottie_element_2183)" fill-opacity="1" d=" M8.38700008392334,0.1860000044107437 C8.810999870300293,4.89900016784668 5.40500020980835,8.640000343322754 0.7749999761581421,8.541000366210938 C-3.859999895095825,8.442000389099121 -7.964000225067139,4.5320000648498535 -8.38700008392334,-0.1889999955892563 C-8.8100004196167,-4.909999847412109 -5.39300012588501,-8.64799976348877 -0.7590000033378601,-8.539999961853027 C3.871000051498413,-8.432000160217285 7.9629998207092285,-4.526000022888184 8.38700008392334,0.1860000044107437z"></path></g></g><g transform="matrix(0,0,0,0,389.84423828125,315.4133605957031)" opacity="1" style="display: block;"><g opacity="1" transform="matrix(1,0,0,1,0,0)"><path fill="url(#__lottie_element_2187)" fill-opacity="1" d=" M122.26200103759766,144.46299743652344 C122.26200103759766,144.46299743652344 -92.03900146484375,150.60000610351562 -92.03900146484375,150.60000610351562 C-92.03900146484375,150.60000610351562 -122.26200103759766,-150.60000610351562 -122.26200103759766,-150.60000610351562 C-122.26200103759766,-150.60000610351562 93.14800262451172,-148.822998046875 93.14800262451172,-148.822998046875 C93.14800262451172,-148.822998046875 122.26200103759766,144.46299743652344 122.26200103759766,144.46299743652344z"></path></g></g><g transform="matrix(0,0,0,0,419.43463134765625,315.0458984375)" opacity="1" style="display: block;"><g opacity="1" transform="matrix(1,0,0,1,0,0)"><path fill="url(#__lottie_element_2191)" fill-opacity="1" d=" M76.28399658203125,142.49899291992188 C76.28399658203125,142.49899291992188 -47.3380012512207,146.03900146484375 -47.3380012512207,146.03900146484375 C-47.3380012512207,146.03900146484375 -76.28399658203125,-146.03900146484375 -76.28399658203125,-146.03900146484375 C-76.28399658203125,-146.03900146484375 47.96799850463867,-145.01400756835938 47.96799850463867,-145.01400756835938 C47.96799850463867,-145.01400756835938 76.28399658203125,142.49899291992188 76.28399658203125,142.49899291992188z"></path></g></g><g transform="matrix(0,0,0,0,405.4498596191406,357.2190246582031)" opacity="1" style="display: block;"><g opacity="1" transform="matrix(1,0,0,1,0,0)"><path fill="url(#__lottie_element_2195)" fill-opacity="1" d=" M194.7779998779297,86.66200256347656 C194.7779998779297,86.66200256347656 -174.28599548339844,108.30999755859375 -174.28599548339844,108.30999755859375 C-174.28599548339844,108.30999755859375 -194.7779998779297,-95.91600036621094 -194.7779998779297,-95.91600036621094 C-194.7779998779297,-95.91600036621094 175.5760040283203,-108.30999755859375 175.5760040283203,-108.30999755859375 C175.5760040283203,-108.30999755859375 194.7779998779297,86.66200256347656 194.7779998779297,86.66200256347656z"></path></g></g><g transform="matrix(0,0,0,0,408.086669921875,383.28741455078125)" opacity="1" style="display: block;"><g opacity="1" transform="matrix(1,0,0,1,0,0)"><path fill="url(#__lottie_element_2199)" fill-opacity="1" d=" M188.72999572753906,30.062999725341797 C188.72999572753906,30.062999725341797 -179.52999877929688,57.472999572753906 -179.52999877929688,57.472999572753906 C-179.52999877929688,57.472999572753906 -188.72999572753906,-34.209999084472656 -188.72999572753906,-34.209999084472656 C-188.72999572753906,-34.209999084472656 180.10899353027344,-57.472999572753906 180.10899353027344,-57.472999572753906 C180.10899353027344,-57.472999572753906 188.72999572753906,30.062999725341797 188.72999572753906,30.062999725341797z"></path></g></g><g transform="matrix(0.14628571271896362,0,0,0.14628571271896362,395.358642578125,330.10321044921875)" opacity="0.48" style="mix-blend-mode: soft-light; display: block;"><g opacity="1" transform="matrix(1,0,0,1,0,0)"><path fill="rgb(248,247,237)" fill-opacity="1" d=" M153.6009979248047,147.81100463867188 C109.13099670410156,-5.704999923706055 -19.584999084472656,6.718999862670898 -58.672000885009766,-132.8800048828125 C-90.79100036621094,-247.593994140625 -17.558000564575195,-304.8550109863281 -62.18000030517578,-401.2919921875 C-83.197998046875,-446.7139892578125 -119.99500274658203,-478.4289855957031 -158.24600219726562,-500.7300109863281 C-158.24600219726562,-500.7300109863281 -218.41400146484375,-502.27099609375 -218.41400146484375,-502.27099609375 C-232.54299926757812,-502.6319885253906 -243.1649932861328,-491.4679870605469 -241.97900390625,-477.4519958496094 C-241.97900390625,-477.4519958496094 -161.0970001220703,478.0530090332031 -161.0970001220703,478.0530090332031 C-159.86300659179688,492.6199951171875 -147.14100646972656,503.47601318359375 -132.8699951171875,502.17401123046875 C-132.8699951171875,502.17401123046875 242.07000732421875,467.9460144042969 242.07000732421875,467.9460144042969 C218.3179931640625,437.81201171875 195.70799255371094,400.89898681640625 179.91600036621094,356.57598876953125 C146.46200561523438,262.6830139160156 178.177001953125,232.6540069580078 153.6009979248047,147.81100463867188z"></path></g></g></g></svg>