<svg xmlns="http://www.w3.org/2000/svg" width="274.82" height="573.88" viewBox="0 0 274.82 573.88"><defs><style>.a{opacity:0.72;}.b{fill:#fefaef;}.c{fill:#faccd7;}.d{fill:#a5c0f5;}</style></defs><title>Vector</title><g class="a"><path class="b" d="M.1,27.1Q26.58,44.4,53,61.69c13.18,8.65,26.61,16.9,39.19,26.46a224.12,224.12,0,0,1,39.51,38.35,224.07,224.07,0,0,1,39.8,75.81A222.74,222.74,0,0,1,180.17,246c.84,8.82.77,17.59.75,26.38,0,27.19-5.94,53.22-15.82,78.47-6.57,16.84-15.75,32.17-25.68,47.17q-33.94,51.3-67.64,102.78c-16.15,24.56-32.12,49.23-48.53,73.61C16.68,584.21,9.22,593.37.1,601Z" transform="translate(-0.1 -27.1)"/><path class="c" d="M253.15,208.07c-12.14,0-21.25-9.3-21.2-21.58,0-11.45,10.3-21.57,21.7-21.39s21.24,10.19,21.27,21.41C274.94,198.88,265.63,208.11,253.15,208.07Z" transform="translate(-0.1 -27.1)"/><path class="d" d="M193.28,96a14.37,14.37,0,0,1,14.64,13.83,14.67,14.67,0,0,1-14.44,14.67,15,15,0,0,1-14.43-14.25A14.35,14.35,0,0,1,193.28,96Z" transform="translate(-0.1 -27.1)"/></g></svg>